PathFileType	4	(X/Y/Z)	C:/Users/beibeiliu/ov580/test_trc/User3\sequence.6_training_dense_right.trc
DataRate	CameraRate	NumFrames	NumMarkers	Units	OrigDataRate	OrigDataStartFrame	OrigNumFrames
120	120	14	19	mm	120	66	98
Frame#	Time	ThumbCMC			ThumbMCP			ThumbIP			ThumbTip			IndexMCP			IndexPIP			IndexTip			MiddleMCP			MiddlePIP			MiddleTip			RingMCP			RingPIP			RingTip			PinkyMCP			PinkyPIP			PinkyTip			BackHand1			BackHand2			BackHand3	
		X0	Y0	Z0	X1	Y1	Z1	X2	Y2	Z2	X3	Y3	Z3	X4	Y4	Z4	X5	Y5	Z5	X6	Y6	Z6	X7	Y7	Z7	X8	Y8	Z8	X9	Y9	Z9	X10	Y10	Z10	X11	Y11	Z11	X12	Y12	Z12	X13	Y13	Z13	X14	Y14	Z14	X15	Y15	Z15	X16	Y16	Z16	X17	Y17	Z17	X18	Y18	Z18	
65	0.541667	181.759	49.4733	-5.82338	169.994	55.8731	-38.9202	161.499	54.0636	-68.0592	151.174	32.0221	-81.0941	219.853	26.9763	-66.5459	217.822	31.1571	-101.711	195.356	42.5424	-115.631	188.434	12.1654	-82.4777	162.194	27.2264	-85.7143	157.908	32.5481	-47.3866	172.709	3.86338	-71.3068	147.045	18.836	-66.0047	153.025	23.214	-33.0274	160.755	-9.10509	-62.243	140.703	7.937	-51.7128	149.064	10.1418	-26.2104	195.819	-15.2363	-19.0459	187.547	-11.8827	13.1919	207.423	14.2942	-5.20224	
66	0.55	175.904	53.9075	-3.8093	166.888	57.2953	-37.0942	165.961	53.753	-70.8398	164.823	29.9136	-82.3875	228.654	43.0747	-60.4452	233.082	52.6294	-88.8905	207.417	56.2243	-112.773	206.456	22.8178	-73.2404	175.731	29.5395	-85.0653	164.873	28.8431	-45.0229	188.816	6.97429	-70.343	158.85	14.8452	-64.9371	159.871	20.6787	-34.6709	182.004	-8.39437	-60.9522	158.498	2.96956	-57.8926	159.47	5.1766	-24.9835	211.572	-6.17033	-15.9556	196.545	-6.1857	14.6355	207.219	27.9809	4.00512	
67	0.558333	157.844	56.6807	-2.05714	152.673	58.0387	-37.3786	158.49	53.5096	-68.3493	165.65	36.0625	-83.81	216.084	73.4259	-51.7286	218.814	86.6816	-80.4928	205.181	81.7199	-107.848	203.732	48.9115	-71.3368	178.304	38.6993	-83.701	163.667	29.9979	-48.2664	200.873	22.9085	-63.3974	169.804	18.0482	-67.7995	164.256	19.5989	-34.6605	197.953	3.75665	-58.7314	168.35	8.42725	-55.1337	167.964	6.9752	-26.5306	215.675	19.689	-8.34799	202.369	7.83601	20.4244	197.887	49.308	7.06539	
68	0.566667	142.833	50.8016	-2.84214	139.068	53.9036	-35.7449	143.541	56.1536	-70.1919	163.674	42.8882	-84.7074	192.961	91.4271	-43.5879	198.404	107.488	-69.8478	187.57	107.523	-99.1892	197.348	65.0123	-68.3217	176.672	48.3138	-82.1268	163.339	32.1826	-48.2303	200.436	40.275	-62.0273	174.229	25.6553	-67.093	166.228	24.2488	-32.212	203.506	24.4726	-56.7652	180.224	15.1014	-58.1973	174.758	13.9979	-25.4004	209.358	42.0565	-3.6283	200.868	24.9243	19.7176	184.468	56.2825	9.50892	
69	0.575	143.247	46.939	-4.82079	136.383	51.299	-35.9244	145.392	56.3383	-69.347	163.346	46.3593	-81.6907	181.987	101.871	-39.5774	185.567	116.966	-64.6013	178.985	113.207	-93.7223	192.359	74.7475	-61.4619	174.504	55.472	-80.4846	166.833	33.9067	-47.4383	200.247	50.533	-56.8125	178.223	31.5781	-66.3993	172.151	22.7876	-32.3327	203.806	35.8111	-54.0325	187.002	16.0636	-56.886	180.4	13.291	-27.6914	208.545	49.8484	-1.64636	194.092	30.8693	25.1332	171.968	57.368	14.3412	
70	0.583333	142.228	40.4815	-2.87149	138.736	47.5011	-37.4825	144.263	53.6443	-69.2061	168.673	46.0772	-81.8756	183.74	99.8683	-37.0939	183.424	115.771	-62.9342	173.049	103.586	-93.4507	195.978	72.8857	-58.2808	176.948	56.9131	-79.5091	168.143	33.5503	-48.3707	199.536	52.3036	-54.3682	181.352	30.545	-66.3902	169.883	23.0735	-34.3265	206.756	36.8911	-52.5642	187.026	16.6332	-53.4248	179.808	14.4455	-27.9848	207.793	49.4293	-0.806024	197.126	30.9048	23.0068	174.183	57.1103	15.4782	
71	0.591667	141.444	36.8099	-5.77752	133.587	42.2528	-39.2327	147.778	46.3671	-69.2104	170.857	40.2492	-84.1093	177.623	94.7266	-38.8872	181.747	108.174	-69.1927	170.096	96.3489	-93.6342	189.208	70.4761	-63.8109	175.753	49.9988	-81.8557	164.897	31.1083	-44.6474	198.245	47.6208	-58.3997	185.233	23.2439	-66.0475	171.696	18.9352	-32.1546	208.791	31.9634	-51.3037	188.459	15.1631	-56.5053	182.502	10.5369	-29.0611	206.621	47.6178	0.876077	194.686	26.7462	25.4837	169.87	50.336	13.5399	
72	0.6	139.385	32.2575	-6.49919	133.788	37.2923	-44.3624	144.366	39.0122	-73.4344	166.735	31.9328	-86.0902	172.889	87.5842	-47.6743	173.569	102.208	-81.3814	165.676	85.3549	-106.034	185.17	63.4827	-70.6077	173.542	37.9227	-85.7649	163.158	25.3526	-50.9748	194.797	44.0139	-62.9885	177.214	17.5112	-68.4263	173.63	13.7575	-34.7881	205.014	30.2192	-55.6425	184.682	8.94877	-55.4625	183.518	7.038	-24.8777	203.734	49.2422	-6.47368	198.26	32.5918	16.8495	167.504	55.1821	4.11811	
73	0.608333	137.947	33.9076	-14.2109	125.841	29.4339	-48.1173	138.193	25.9031	-76.753	159.142	19.6628	-90.3055	164.75	82.1942	-64.2027	160.187	91.6859	-95.3196	156.175	77.7381	-120.825	177.457	53.8669	-80.8178	166.804	27.5731	-91.8456	159.772	17.563	-53.6982	188.594	36.1768	-70.4039	176.014	5.31961	-70.1505	170.251	9.77749	-36.839	201.406	21.9366	-62.3456	184.761	-0.889983	-57.1515	181.268	5.62114	-25.6309	198.301	50.9748	-19.545	194.346	36.663	11.5504	164.516	54.9787	-2.72805	
74	0.616667	135.617	31.3971	-17.129	127.325	21.071	-50.7458	133.929	11.7391	-77.0835	156.289	3.25912	-89.3984	157.91	69.4865	-79.1407	154.082	72.0676	-112.072	152.626	55.3775	-134.137	171.289	39.2754	-88.7809	162.341	9.07869	-91.3987	158.743	6.75463	-54.1799	185.51	25.3484	-75.7959	171.64	-4.74326	-66.4343	167.151	3.15636	-38.1558	197.892	13.8522	-66.1517	179.673	-7.36128	-54.9609	177.462	6.60778	-28.3648	198.237	50.176	-29.9007	192.921	42.4746	4.88838	163.315	58.8496	-15.651	
75	0.625	131.374	29.1019	-19.4064	120.498	11.2649	-47.1527	126.802	-3.07668	-73.599	151.494	-13.4362	-90.452	150.079	54.9676	-89.8816	145.261	49.7834	-118.958	138.742	30.6723	-139.501	164.208	28.4845	-90.1554	153.68	-5.16667	-89.116	154.437	2.2649	-48.6255	179.546	9.99668	-79.2894	167.324	-13.0214	-69.0084	163.73	-0.678466	-36.6467	194.688	6.38121	-66.5163	179.629	-14.9868	-55.5118	175.784	2.04771	-27.3448	193.78	47.7606	-36.3144	189.986	45.2199	-2.0755	157.387	58.8958	-22.5408	
76	0.633333	127.777	27.3744	-17.3295	118.547	4.78849	-47.8406	125.025	-12.7144	-69.3282	145.329	-26.1364	-83.9776	145.591	43.271	-89.5362	134.444	32.5991	-119.658	132.467	1.71754	-134.181	158.545	16.6884	-91.6511	151.197	-15.7282	-85.1847	148.65	-4.99608	-48.2227	173.846	6.26305	-76.9689	163.818	-21.0307	-61.1279	160.155	-4.6364	-34.0523	188.623	1.04598	-65.3697	174.922	-19.2257	-52.2035	169.441	1.77926	-27.0594	185.873	45.5274	-35.9108	189.188	49.2232	-8.63516	154.362	55.8295	-21.7129	
77	0.641667	124.435	25.7759	-17.7706	118.249	0.109888	-39.8489	121.898	-19.7532	-63.2259	144.352	-34.2434	-75.4857	136.861	32.4964	-95.3372	131.164	13.4221	-118.159	128.823	-16.6494	-123.672	156.465	5.61291	-89.509	145.224	-22.5066	-80.7961	149.185	-9.3228	-43.1642	173.189	-6.99308	-75.5309	159.69	-25.6832	-59.2134	155.153	-9.3646	-31.3642	189.085	-8.20811	-61.5295	173.233	-23.8507	-43.8829	171.398	0.995586	-23.7419	183.665	40.9587	-41.2288	186.723	46.4614	-11.4102	154.174	51.8541	-27.2552	
78	0.65	122.216	24.8122	-15.8642	113.271	-3.96938	-35.7381	121.298	-28.6472	-62.2659	147.922	-37.3733	-66.671	138.016	22.193	-90.7702	127.6	2.14526	-115.8	125.988	-28.8542	-118.033	154.955	0.515718	-85.269	147.929	-30.9046	-73.8685	146.258	-12.8023	-38.8993	171.38	-11.7996	-70.5973	161.369	-31.9827	-49.6472	155.732	-9.32529	-26.5484	184.658	-15.7721	-58.7162	172.65	-28.6738	-40.0055	166.351	-4.32611	-21.4495	181.884	39.8543	-42.2991	181.201	49.8173	-11.1387	151.282	49.7027	-30.5485	
